# xmcd CD database file
#
# Track frame offsets:
#	150
#	27307
#	55477
#	78247
#
# Disc length: 1313 seconds
#
# Revision: 4
# Processed by: cddbd v1.5.1PL2 Copyright (c) Steve Scherf et al.
# Submitted via: CDex 1.51
#
DISCID=2a051f04
DTITLE=Thierry Lang - Guide Me Home, Bonus CD
DYEAR=2000
DGENRE=Jazz
TTITLE0=You Take My Breath Away
TTITLE1=Bohemian Rhapsody
TTITLE2=Love Of My Life
TTITLE3=There Must Be More To Life Than This
EXTD=Music form the film "Freddie Mercury - The Untold Story" YEAR: 2000
EXTT0=
EXTT1=
EXTT2=
EXTT3=
PLAYORDER=
